<svg width="548" height="248" viewBox="0 0 548 248" fill="none" xmlns="http://www.w3.org/2000/svg">
<path d="M107.7 8.65677L108.598 6.61151C109.097 5.36441 108.498 3.96766 107.301 3.46881C106.054 2.96997 104.657 3.56857 104.158 4.76579L103.061 7.26C103.061 7.26 103.111 7.26 103.16 7.26L107.75 8.60688L107.7 8.65677Z" fill="white"/>
<path d="M193.85 29.7577C170.105 29.4085 146.36 29.0593 122.615 28.76C98.8705 28.4607 117.826 30.1069 116.679 32.3517C108.897 47.6661 101.165 62.9307 93.3832 78.2451C83.157 99.1466 72.9806 120.098 62.7543 140.999C62.2555 142.047 63.5525 143.095 64.4504 142.296C71.6337 135.762 86.599 125.136 106.104 127.132C109.795 127.481 126.307 129.177 137.68 143.294C148.106 156.264 149.653 174.172 143.716 188.489C135.735 207.744 115.781 216.923 98.7208 217.023C75.1256 217.173 60.8587 200.012 58.6638 197.269C57.7659 196.121 56.9179 194.974 56.1197 193.827C55.3216 192.679 54.2241 192.131 52.9272 192.131H25.5407C23.9444 192.131 22.847 193.727 23.3957 195.273C25.5906 201.11 28.6335 207.196 32.8737 213.232C49.8343 237.226 79.6152 250.445 109.147 247.253C112.988 246.854 148.954 242.364 169.257 210.488C172.549 205.35 184.172 186.394 180.98 160.953C180.182 154.618 177.638 136.31 162.273 120.946C145.462 104.135 124.461 102.09 116.679 101.89C115.681 101.89 114.983 100.793 115.432 99.8949C118.375 93.36 121.318 86.8252 124.262 80.2904C124.262 80.2904 124.262 80.2904 124.262 80.2405C127.205 73.7057 130.148 67.1708 133.091 60.636C133.64 59.4388 134.837 58.6905 136.134 58.7404C155.29 59.1395 174.495 59.5386 193.65 59.9875C196.743 60.0374 199.337 57.5432 199.337 54.4504V35.3946C199.337 32.4016 196.893 29.9572 193.9 29.9572L193.85 29.7577Z" fill="white"/>
<path d="M74.6267 33.7485C80.3135 33.6487 81.6105 33.3993 82.259 32.4016C83.1569 31.0049 82.6082 28.4109 81.1616 27.3134C79.7648 26.2659 74.0281 25.5176 70.8854 25.2183C74.3274 18.035 77.7694 10.8018 81.2114 3.61844H4.29004C1.94549 3.61844 0 5.51404 0 7.90848V29.1093C0 31.7032 2.09513 33.7984 4.68911 33.7984H66.9446C68.8402 33.7984 71.484 33.8483 74.6267 33.7984V33.7485Z" fill="white"/>
<path d="M112.289 12.0489C111.99 11.55 111.491 11.1509 110.893 11.0013L102.712 8.60686C101.415 8.25767 100.068 8.95604 99.7185 10.253C99.3693 11.55 100.068 12.8969 101.365 13.2461L109.546 15.6405C110.843 15.9897 112.19 15.2913 112.539 13.9943C112.738 13.296 112.639 12.5976 112.289 12.0489Z" fill="white"/>
<path d="M108.199 16.5884L100.018 14.1939C98.7209 13.8447 97.374 14.5431 97.0248 15.8401C96.6756 17.1371 97.374 18.484 98.671 18.8332L106.852 21.2276C108.149 21.5768 109.496 20.8784 109.845 19.5814C110.045 18.883 109.945 18.1847 109.596 17.6359C109.296 17.1371 108.797 16.738 108.199 16.5884Z" fill="white"/>
<path d="M105.455 22.1754L97.2742 19.781C95.9772 19.4318 94.6303 20.1302 94.2811 21.4271C93.932 22.7241 94.6303 24.071 95.9273 24.4202L104.108 26.8146C105.405 27.1638 106.752 26.4655 107.101 25.1685C107.301 24.4701 107.201 23.7717 106.852 23.223C106.553 22.7241 106.054 22.3251 105.455 22.1754Z" fill="white"/>
<path d="M102.712 27.7624L94.5305 25.3679C93.2336 25.0187 91.8867 25.7171 91.5375 27.0141C91.1883 28.3111 91.8867 29.658 93.1837 30.0072L101.365 32.4016C102.662 32.7508 104.009 32.0524 104.358 30.7554C104.557 30.057 104.458 29.3587 104.108 28.8099C103.809 28.3111 103.31 27.912 102.712 27.7624Z" fill="white"/>
<path d="M100.217 7.65905C100.467 7.5094 100.766 7.40962 101.065 7.30986L101.863 5.56391C102.362 4.3168 101.764 2.92005 100.566 2.42121C99.3194 1.92237 97.9226 2.52098 97.4237 3.7182L92.6847 14.3934C92.5351 14.7426 92.136 14.992 91.737 14.8923C91.1383 14.7925 90.839 14.1939 91.0386 13.6452L95.1291 4.46647C95.6279 3.21936 95.0293 1.82259 93.8321 1.32375C92.585 0.824911 91.1882 1.42352 90.6894 2.62074L85.9504 13.296C85.8007 13.6451 85.4017 13.8946 85.0026 13.7948C84.404 13.695 84.1047 13.0964 84.3042 12.5477L88.3947 3.31912C88.8936 2.07202 88.2949 0.675264 87.0977 0.176422C85.8506 -0.322419 84.4539 0.276194 83.955 1.47341L73.9283 24.0709C80.513 24.919 81.7102 25.8169 82.1093 26.1162C82.5583 26.4654 83.0072 26.9143 83.3065 27.4631C84.2543 28.9596 84.4539 30.8552 83.8553 32.4016C83.7555 32.6011 83.6557 32.9004 83.3564 33.2995C82.259 34.8459 80.4132 35.1452 79.665 35.2949C78.817 35.4445 78.4678 35.3448 76.9214 35.2949C75.2752 35.245 73.629 35.2949 71.9828 35.2949H66.4955C39.9572 87.7232 20.7019 126.034 18.2077 131.322C16.5615 134.764 15.2645 138.306 15.2645 138.306C14.4165 140.551 13.5185 143.194 12.7204 146.138C12.4211 147.235 13.2691 148.283 14.3666 148.283H43.0001C45.195 148.283 47.1405 147.035 48.0883 145.09L62.6545 114.81C75.6244 87.7232 88.6441 60.6859 101.614 33.5988C98.7207 32.8007 95.8275 32.0025 92.9342 31.2543C92.0363 31.0048 91.2381 30.4062 90.7393 29.6081C90.1905 28.7102 90.0409 27.5628 90.3402 26.5652C90.6395 25.6174 91.288 24.7693 92.136 24.3204C92.5351 24.1208 92.9342 23.9712 93.3831 23.8714C92.8843 22.9735 92.7845 21.9259 93.0339 20.9781C93.3333 19.9804 93.9818 19.1823 94.8298 18.6835C95.2289 18.4839 95.6279 18.3343 96.0769 18.2345C95.578 17.3366 95.4783 16.289 95.7277 15.3412C96.027 14.3435 96.6755 13.5454 97.5235 13.0465C97.8727 12.847 98.2219 12.7472 98.621 12.6475L98.7207 12.4479C98.2718 11.5999 98.2219 10.6022 98.4713 9.70431C98.7706 8.70662 99.4191 7.90847 100.267 7.45952L100.217 7.65905Z" fill="white"/>
<path d="M59.8611 163.198C53.9748 171.279 41.2543 185.746 35.767 185.746C30.2798 185.746 29.0327 182.054 30.0304 180.308C30.8285 178.912 31.7264 177.066 32.6742 175.07C27.7357 181.705 23.3459 185.746 19.0558 185.746C14.7658 185.746 11.8226 182.004 11.8226 179.011C11.8226 173.374 22.7972 155.266 32.3749 155.266C41.9527 155.266 37.3633 157.561 37.3633 159.856C37.3633 162.15 37.2636 160.953 36.9643 161.502C28.5338 165.493 21.7496 175.12 21.7496 178.562C21.7496 182.004 22.2983 180.258 23.0965 180.258C25.8401 180.258 31.3274 173.374 40.2067 159.058C41.5037 156.763 49.8344 160.953 48.0884 163.747C44.3471 169.533 42.3019 173.374 39.7578 178.662C39.3587 179.56 39.4086 179.909 39.8575 179.909C41.7531 179.909 52.9272 168.037 57.5664 161.552L59.8611 163.248V163.198Z" fill="white"/>
<path d="M96.1268 163.198C87.1975 175.22 76.8715 185.746 71.3842 185.746C65.8969 185.746 63.702 182.004 64.7496 180.308C68.3413 174.372 72.0826 166.59 72.8807 164.495C73.0803 164.046 72.8807 163.697 72.4318 163.697C70.9851 163.697 64.4004 168.735 55.122 184.648C54.1243 186.693 45.0453 182.852 46.7414 180.009C51.7298 171.678 54.4735 166.54 59.2125 156.563C60.26 154.319 68.9898 158.359 67.4434 161.252C65.5478 164.694 64.5002 166.49 63.6522 167.987C70.3366 159.606 76.8715 155.316 79.5652 155.316C82.259 155.316 86.9481 159.407 86.2996 160.554C82.3587 166.839 79.1661 172.526 75.8738 179.161C75.6743 179.51 75.6743 179.959 76.1731 179.959C77.7195 179.959 86.5989 171.179 93.882 161.602L96.1766 163.298L96.1268 163.198Z" fill="white"/>
<path d="M128.003 163.198C122.565 170.83 116.929 172.876 112.888 172.876H112.439C107.351 179.211 99.5689 185.746 94.4308 185.746C89.2927 185.746 84.853 182.553 84.853 179.011C84.853 172.776 94.0816 155.266 103.111 155.266C112.14 155.266 107.999 157.81 107.999 159.906C107.999 162.001 107.9 161.003 107.7 161.502C101.664 165.293 94.8299 174.123 94.8299 179.061C94.8299 184 95.2788 180.857 96.1767 180.857C99.5689 180.857 104.956 175.968 108.299 171.13C106.952 169.833 106.104 168.087 106.104 166.59C106.104 163.497 109.496 158.958 112.239 158.958C114.983 158.958 117.378 160.554 117.577 162.949C117.627 164.495 116.629 166.74 114.983 169.334C118.525 168.685 121.618 166.79 125.658 161.552L127.953 163.248L128.003 163.198Z" fill="white"/>
<path d="M138.279 171.379C138.279 178.512 128.951 185.746 122.515 185.746C116.08 185.746 116.779 183.65 116.779 181.056C116.779 178.462 119.572 175.968 122.067 175.968C124.561 175.968 124.96 177.215 125.459 178.014C128.003 176.018 129.05 173.275 129 170.381C129 167.488 127.354 164.994 126.357 162.799C126.157 162.35 125.957 161.901 125.758 161.502C125.159 160.205 124.76 159.058 124.76 158.06C124.76 155.117 128.103 150.527 130.796 150.527C133.49 150.527 135.934 152.523 136.134 154.468C136.333 156.264 133.889 158.808 131.195 161.452C135.635 164.046 138.279 167.688 138.279 171.379Z" fill="white"/>
<path d="M240.027 79.7473C239.279 79.7473 238.606 79.523 238.158 79.0745C237.709 78.6259 237.485 78.0278 237.485 77.2055V41.3208C237.485 40.5732 237.709 39.9751 238.158 39.5265C238.606 39.078 239.204 38.8537 240.027 38.8537H264.099C264.922 38.8537 265.52 39.078 265.968 39.4518C266.417 39.8256 266.641 40.4236 266.641 41.246V43.414C266.641 44.1616 266.417 44.7597 265.968 45.2083C265.52 45.6568 264.922 45.8811 264.099 45.8811H245.933V55.8242H259.614C260.436 55.8242 261.034 56.0485 261.483 56.4222C261.931 56.796 262.155 57.3941 262.155 58.2165V60.0855C262.155 60.8331 261.931 61.4311 261.483 61.8797C261.034 62.3283 260.436 62.5525 259.614 62.5525H245.933V72.6451H264.174C265.819 72.6451 266.641 73.4675 266.641 75.0374V77.2802C266.641 78.0278 266.417 78.6259 265.968 79.0745C265.52 79.523 264.922 79.7473 264.174 79.7473H239.952H240.027Z" fill="white"/>
<path d="M280.696 80.5696C278.229 80.5696 275.912 80.1211 273.669 79.224C271.426 78.3268 269.632 77.2054 268.286 75.785C267.09 74.5889 267.015 73.4674 268.137 72.2713L269.183 71.0751C270.305 69.879 271.426 69.8042 272.697 70.9256C275.164 73.0937 277.781 74.1403 280.621 74.1403C283.462 74.1403 283.089 73.8412 283.836 73.3179C284.584 72.7946 285.032 72.047 285.032 71.1499C285.032 70.2528 284.958 70.3275 284.733 69.9537C284.509 69.5799 284.359 69.2809 284.06 69.0566C283.836 68.8323 283.462 68.5333 282.939 68.2343C282.416 67.9352 281.967 67.711 281.668 67.5614C281.369 67.4119 280.846 67.1876 280.173 66.9633C279.874 66.8886 279.724 66.8138 279.575 66.7391C278.603 66.44 277.855 66.141 277.332 65.9915C276.809 65.7672 276.061 65.5429 275.239 65.1691C274.416 64.7953 273.744 64.4215 273.22 64.1225C272.697 63.8234 272.174 63.3749 271.575 62.8516C270.977 62.3282 270.529 61.8049 270.155 61.2816C269.856 60.7583 269.557 60.0855 269.333 59.4126C269.108 58.7398 268.959 57.9174 268.959 57.0203C268.959 54.1794 270.08 51.9366 272.174 50.2172C274.342 48.4977 277.257 47.6753 280.846 47.6753C284.434 47.6753 284.883 47.9744 286.827 48.6472C288.77 49.32 290.34 50.2172 291.536 51.3385C292.134 51.8619 292.508 52.3852 292.508 52.9085C292.508 53.4318 292.284 54.1047 291.686 54.927L290.789 56.0484C289.742 57.2446 288.621 57.3193 287.35 56.3475C285.331 54.7027 283.163 53.8804 280.846 53.8804C278.528 53.8804 278.678 54.1047 277.93 54.628C277.182 55.0765 276.883 55.7494 276.883 56.5717C276.883 57.3941 276.883 57.0203 276.958 57.1698C276.958 57.3941 277.108 57.5436 277.257 57.7679C277.407 57.9174 277.556 58.1417 277.706 58.2912C277.855 58.4407 278.08 58.5902 278.379 58.7398C278.678 58.8893 278.902 59.0388 279.126 59.1883C279.351 59.3378 279.65 59.4126 280.023 59.6369C280.397 59.7864 280.771 59.9359 280.995 60.0107C281.22 60.0854 281.593 60.235 282.117 60.4593C282.64 60.6835 283.014 60.8331 283.313 60.9078C284.509 61.4311 285.556 61.8797 286.378 62.2535C287.2 62.6273 288.023 63.1506 288.92 63.7487C289.817 64.3468 290.565 65.0196 291.088 65.6177C291.611 66.2905 292.06 67.0381 292.359 68.01C292.733 68.9819 292.882 69.9537 292.882 71.0751C292.882 74.0655 291.761 76.3831 289.518 78.1026C287.275 79.822 284.285 80.7192 280.547 80.7192L280.696 80.5696Z" fill="white"/>
<path d="M311.273 80.5696C308.058 80.5696 305.142 79.822 302.601 78.4016C299.984 76.9811 297.966 74.9626 296.545 72.4955C295.125 69.9537 294.377 67.1876 294.377 64.0477C294.377 59.3378 295.947 55.3755 299.162 52.2356C302.376 49.0957 306.413 47.5258 311.273 47.5258C316.132 47.5258 320.244 49.1705 323.533 52.3851C324.505 53.357 324.505 54.3289 323.533 55.3008L321.291 57.5436C320.319 58.4407 319.347 58.3659 318.3 57.5436C316.356 55.7494 314.114 54.8522 311.497 54.8522C308.88 54.8522 306.787 55.7493 305.068 57.4688C303.423 59.2631 302.526 61.4311 302.526 64.1224C302.526 66.8138 303.348 68.9818 304.993 70.7761C306.638 72.5703 308.806 73.3927 311.422 73.3927C314.039 73.3927 316.282 72.4955 318.225 70.7013C319.272 69.7294 320.319 69.7294 321.216 70.7013L323.459 72.9441C324.431 73.916 324.431 74.8879 323.459 75.8597C320.169 79.1492 316.057 80.7939 311.198 80.7939L311.273 80.5696Z" fill="white"/>
<path d="M353.811 75.8597C350.597 78.9996 346.485 80.5696 341.551 80.5696C336.617 80.5696 332.505 78.9996 329.215 75.8597C325.926 72.7198 324.356 68.7575 324.356 64.0477C324.356 59.3378 326.001 55.3755 329.215 52.2356C332.505 49.0957 336.542 47.5258 341.551 47.5258C346.56 47.5258 350.597 49.0957 353.811 52.2356C357.026 55.3755 358.671 59.3378 358.671 64.0477C358.671 68.7575 357.026 72.7198 353.811 75.8597ZM341.551 73.3179C344.093 73.3179 346.261 72.4208 347.905 70.7013C349.55 68.9818 350.372 66.739 350.372 64.0477C350.372 61.3563 349.55 59.1883 347.905 57.3941C346.261 55.5998 344.093 54.7775 341.551 54.7775C339.009 54.7775 336.841 55.6746 335.121 57.3941C333.402 59.1883 332.58 61.3563 332.58 64.0477C332.58 66.739 333.402 68.9071 335.121 70.7013C336.766 72.4208 338.934 73.3179 341.551 73.3179Z" fill="white"/>
<path d="M364.278 79.7472C363.53 79.7472 362.932 79.5229 362.483 79.0744C362.035 78.6258 361.885 78.0277 361.885 77.2801V38.0313C361.885 37.3584 362.11 36.8351 362.483 36.3865C362.857 36.0127 363.455 35.7137 364.278 35.5642L367.717 34.8913C368.539 34.7418 369.137 34.8913 369.586 35.3399C370.034 35.7885 370.258 36.4613 370.258 37.2837V77.2801C370.258 78.0277 370.034 78.6258 369.66 79.0744C369.287 79.5229 368.689 79.7472 367.941 79.7472H364.278Z" fill="white"/>
<path d="M388.5 47.5258C390.144 47.5258 391.64 47.6753 392.985 47.9743C394.406 48.2734 395.677 48.7967 396.873 49.4695C398.069 50.1424 399.116 51.0395 399.938 52.0113C400.76 53.058 401.433 54.2541 401.956 55.7493C402.405 57.2445 402.704 58.8892 402.704 60.6835V77.2802C402.704 78.0278 402.48 78.6258 402.106 79.0744C401.732 79.523 401.134 79.7472 400.386 79.7472H398.368C397.62 79.7472 397.022 79.523 396.574 79.0744C396.125 78.6258 395.976 78.0278 395.976 77.2802V76.2335C392.985 79.1492 389.546 80.5696 385.584 80.5696C381.622 80.5696 378.93 79.6725 376.688 77.8035C374.445 75.9345 373.323 73.4674 373.323 70.477C373.323 67.4866 374.52 64.7205 376.987 62.702C379.454 60.7583 382.668 59.7864 386.705 59.7864C390.742 59.7864 392.163 60.3844 394.854 61.5058V59.7864C394.854 57.9921 394.256 56.4969 392.985 55.4503C391.714 54.4037 390.07 53.8803 387.902 53.8803C385.734 53.8803 382.295 54.7027 379.902 56.3474C378.631 57.095 377.585 56.796 376.762 55.4503L376.239 54.4784C375.342 52.9832 375.566 51.8618 376.912 51.0395C380.351 48.7219 384.238 47.6005 388.5 47.6005V47.5258ZM387.378 74.8131C389.472 74.8131 391.266 74.2898 392.761 73.1684C394.256 72.047 395.079 70.7761 395.079 69.2061V66.8886C392.611 65.6924 390.219 65.0943 387.902 65.0943C385.584 65.0943 384.313 65.5429 383.117 66.44C381.921 67.3371 381.323 68.608 381.323 70.1032C381.323 71.5984 381.846 72.6451 382.967 73.5422C384.089 74.3645 385.584 74.8131 387.453 74.8131H387.378Z" fill="white"/>
<path d="M421.693 79.7473C420.945 79.7473 420.273 79.523 419.824 79.0745C419.375 78.6259 419.151 78.0278 419.151 77.2055V41.3208C419.151 40.5732 419.375 39.9751 419.824 39.5265C420.273 39.078 420.871 38.8537 421.693 38.8537H436.496C443 38.8537 448.158 40.7227 452.046 44.4607C455.933 48.1987 457.877 53.1328 457.877 59.1883C457.877 65.2439 455.933 70.3276 452.046 74.0655C448.158 77.8035 443 79.6725 436.496 79.6725H421.693V79.7473ZM427.599 72.7199H436.196C440.159 72.7199 443.299 71.5237 445.616 69.0566C448.009 66.6643 449.205 63.3749 449.205 59.2631C449.205 55.1513 448.009 51.8619 445.616 49.4696C443.224 47.0773 440.084 45.8811 436.196 45.8811H427.599V72.6451V72.7199Z" fill="white"/>
<path d="M488.827 75.8597C485.613 78.9996 481.501 80.5696 476.567 80.5696C471.633 80.5696 467.521 78.9996 464.231 75.8597C460.942 72.7198 459.372 68.7575 459.372 64.0477C459.372 59.3378 461.017 55.3755 464.231 52.2356C467.521 49.0957 471.558 47.5258 476.567 47.5258C481.576 47.5258 485.613 49.0957 488.827 52.2356C492.042 55.3755 493.687 59.3378 493.687 64.0477C493.687 68.7575 492.042 72.7198 488.827 75.8597ZM476.567 73.3179C479.109 73.3179 481.277 72.4208 482.921 70.7013C484.566 68.9818 485.388 66.739 485.388 64.0477C485.388 61.3563 484.566 59.1883 482.921 57.3941C481.277 55.5998 479.109 54.7775 476.567 54.7775C474.025 54.7775 471.857 55.6746 470.137 57.3941C468.418 59.1883 467.596 61.3563 467.596 64.0477C467.596 66.739 468.418 68.9071 470.137 70.7013C471.782 72.4208 473.95 73.3179 476.567 73.3179Z" fill="white"/>
<path d="M534.954 47.5258C538.842 47.5258 541.981 48.7967 544.299 51.2637C546.617 53.7308 547.813 57.0202 547.813 60.9825V77.2802C547.813 78.0278 547.588 78.6258 547.215 79.0744C546.766 79.523 546.243 79.7472 545.42 79.7472H541.832C541.084 79.7472 540.486 79.523 540.113 79.0744C539.739 78.6258 539.514 78.0278 539.514 77.2802V61.5806C539.514 59.4873 538.991 57.7679 537.87 56.5717C536.748 55.3008 535.253 54.7027 533.235 54.7027C531.216 54.7027 529.646 55.3008 528.375 56.5717C527.104 57.8426 526.506 59.4873 526.506 61.5806V77.2802C526.506 78.0278 526.282 78.6258 525.908 79.0744C525.534 79.523 524.936 79.7472 524.189 79.7472H520.525C519.778 79.7472 519.18 79.523 518.731 79.0744C518.283 78.6258 518.133 78.0278 518.133 77.2802V61.5806C518.133 59.4873 517.61 57.7679 516.488 56.5717C515.367 55.3008 513.872 54.7027 511.853 54.7027C509.835 54.7027 508.265 55.3008 506.994 56.5717C505.723 57.8426 505.125 59.4873 505.125 61.5806V77.2802C505.125 78.0278 504.901 78.6258 504.527 79.0744C504.153 79.523 503.555 79.7472 502.807 79.7472H499.144C498.397 79.7472 497.798 79.523 497.35 79.0744C496.901 78.6258 496.752 78.0278 496.752 77.2802V50.4414C496.752 49.6938 496.976 49.0957 497.35 48.6472C497.798 48.1986 498.322 48.0491 499.144 48.0491H501.536C502.284 48.0491 502.882 48.2734 503.331 48.6472C503.779 49.0957 503.929 49.619 503.929 50.4414V52.5347C506.396 49.1705 509.685 47.5258 513.872 47.5258C518.058 47.5258 518.133 47.9743 519.927 48.8714C521.722 49.7686 523.142 51.0395 524.189 52.6094C525.385 51.0395 526.88 49.7686 528.674 48.8714C530.469 47.9743 532.562 47.5258 534.879 47.5258H534.954Z" fill="white"/>
<path d="M286.378 138.509C286.527 139.406 286.378 140.078 285.929 140.527C285.481 140.976 284.808 141.275 283.911 141.275H280.397C278.752 141.275 277.855 140.377 277.631 138.509L274.641 113.614L264.249 139.032C263.427 140.751 262.305 141.648 260.885 141.648H260.287C258.717 141.648 257.595 140.751 256.923 139.032L246.456 113.614L243.466 138.509C243.242 140.377 242.344 141.275 240.625 141.275H236.588C235.691 141.275 235.093 141.05 234.644 140.527C234.196 140.004 234.046 139.406 234.121 138.509L240.027 97.5401C240.251 95.9702 241.148 95.1478 242.793 95.1478H243.391C244.737 95.1478 245.783 95.9702 246.456 97.5401L260.511 128.79L274.117 97.5401C274.79 95.9702 275.912 95.1478 277.257 95.1478H277.781C279.351 95.1478 280.248 95.9702 280.547 97.5401L286.303 138.509H286.378Z" fill="white"/>
<path d="M307.61 105.166C309.404 105.166 311.123 105.315 312.693 105.689C314.263 106.063 315.684 106.586 317.029 107.408C318.375 108.156 319.497 109.128 320.468 110.249C321.44 111.371 322.188 112.791 322.711 114.436C323.234 116.08 323.534 117.949 323.534 119.968V138.583C323.534 139.48 323.309 140.153 322.861 140.602C322.412 141.05 321.739 141.349 320.917 141.349H318.674C317.852 141.349 317.179 141.125 316.73 140.602C316.282 140.078 316.058 139.405 316.058 138.583V137.387C312.768 140.602 308.881 142.246 304.47 142.246C300.059 142.246 296.994 141.2 294.527 139.106C291.985 137.013 290.714 134.322 290.714 130.883C290.714 127.444 292.06 124.379 294.826 122.211C297.592 120.043 301.255 118.921 305.741 118.921C310.226 118.921 311.796 119.519 314.861 120.79V118.921C314.861 116.903 314.189 115.258 312.768 114.062C311.348 112.866 309.479 112.268 307.012 112.268C304.545 112.268 300.732 113.165 298.04 115.034C296.62 115.931 295.424 115.557 294.527 114.062L293.929 112.941C292.957 111.296 293.181 109.95 294.676 109.053C298.489 106.436 302.9 105.166 307.684 105.166H307.61ZM306.414 135.742C308.731 135.742 310.75 135.144 312.469 133.873C314.189 132.602 315.011 131.182 315.011 129.462V126.846C312.245 125.5 309.553 124.827 306.937 124.827C304.32 124.827 302.9 125.351 301.554 126.397C300.208 127.444 299.536 128.79 299.536 130.509C299.536 132.229 300.134 133.35 301.405 134.322C302.676 135.294 304.32 135.742 306.414 135.742Z" fill="white"/>
<path d="M353.138 105.838C353.811 106.063 354.26 106.362 354.559 106.736C354.858 107.184 354.933 107.782 354.708 108.605L353.811 112.118C353.363 113.613 352.466 114.137 350.97 113.763C349.924 113.389 348.877 113.24 347.83 113.24C345.588 113.24 343.793 113.987 342.523 115.557C341.252 117.127 340.579 119.22 340.579 121.762V138.508C340.579 139.331 340.354 140.004 339.906 140.527C339.457 141.05 338.785 141.275 337.962 141.275H333.85C333.028 141.275 332.355 141.05 331.907 140.527C331.458 140.004 331.234 139.331 331.234 138.508V108.38C331.234 107.558 331.458 106.885 331.907 106.436C332.355 105.988 333.028 105.764 333.85 105.764H336.542C337.364 105.764 338.037 105.988 338.485 106.436C338.934 106.885 339.158 107.558 339.158 108.38V110.548C341.551 106.96 344.691 105.091 348.578 105.091C352.466 105.091 351.494 105.315 352.989 105.764L353.138 105.838Z" fill="white"/>
<path d="M373.697 142.172C370.109 142.172 366.819 141.349 363.904 139.779C360.988 138.135 358.745 135.967 357.101 133.126C355.456 130.285 354.634 127.145 354.634 123.706C354.634 118.398 356.428 113.987 360.016 110.473C363.605 106.96 368.165 105.166 373.623 105.166C379.08 105.166 383.715 106.96 387.378 110.623C388.5 111.744 388.5 112.791 387.378 113.912L384.911 116.379C383.865 117.351 382.743 117.351 381.547 116.379C379.379 114.361 376.837 113.389 373.922 113.389C371.006 113.389 368.614 114.361 366.745 116.379C364.876 118.323 363.904 120.865 363.904 123.855C363.904 126.846 364.801 129.313 366.67 131.331C368.539 133.275 370.931 134.322 373.922 134.322C376.912 134.322 379.304 133.35 381.547 131.331C382.743 130.21 383.865 130.21 384.911 131.331L387.378 133.799C388.425 134.845 388.425 135.967 387.378 137.013C383.715 140.676 379.155 142.545 373.623 142.545L373.697 142.172Z" fill="white"/>
<path d="M423.786 136.864C420.123 140.377 415.563 142.172 410.031 142.172C404.498 142.172 399.863 140.377 396.275 136.864C392.686 133.35 390.817 128.939 390.817 123.631C390.817 118.323 392.612 113.912 396.275 110.399C399.938 106.885 404.498 105.091 410.031 105.091C415.563 105.091 420.123 106.885 423.786 110.399C427.45 113.912 429.244 118.323 429.244 123.631C429.244 128.939 427.45 133.35 423.786 136.864ZM410.031 134.023C412.946 134.023 415.264 133.051 417.133 131.107C419.002 129.163 419.899 126.696 419.899 123.706C419.899 120.716 419.002 118.249 417.133 116.23C415.264 114.212 412.872 113.24 410.031 113.24C407.19 113.24 404.723 114.212 402.854 116.23C400.985 118.249 400.013 120.716 400.013 123.706C400.013 126.696 400.985 129.163 402.854 131.107C404.723 133.051 407.115 134.023 410.031 134.023Z" fill="white"/>
<path d="M437.766 141.275C436.944 141.275 436.271 141.05 435.823 140.527C435.374 140.004 435.15 139.331 435.15 138.508V94.5497C435.15 93.8021 435.374 93.204 435.823 92.7554C436.271 92.3069 436.944 92.0079 437.841 91.7836L441.729 91.036C442.626 90.8117 443.373 91.036 443.822 91.4845C444.27 92.0079 444.569 92.7555 444.569 93.7273V138.508C444.569 139.331 444.345 140.004 443.897 140.527C443.448 141.05 442.775 141.275 441.953 141.275H437.841H437.766Z" fill="white"/>
<path d="M457.353 99.8576C455.634 99.8576 454.213 99.2595 453.092 98.1381C451.971 97.0167 451.373 95.5215 451.373 93.8768C451.373 92.2321 451.971 90.8116 453.167 89.6155C454.363 88.4193 455.783 87.8213 457.428 87.8213C459.073 87.8213 460.493 88.4193 461.689 89.6155C462.886 90.8116 463.484 92.2321 463.484 93.8768C463.484 95.5215 462.886 96.9419 461.689 98.1381C460.493 99.3343 459.073 99.9323 457.428 99.9323L457.353 99.8576ZM455.335 141.275C454.512 141.275 453.84 141.05 453.391 140.527C452.943 140.004 452.718 139.331 452.718 138.508V108.38C452.718 107.558 452.943 106.885 453.391 106.436C453.84 105.988 454.512 105.764 455.335 105.764H459.447C460.269 105.764 460.942 105.988 461.39 106.436C461.839 106.885 462.063 107.558 462.063 108.38V138.508C462.063 139.331 461.839 140.004 461.39 140.527C460.942 141.05 460.269 141.275 459.447 141.275H455.335Z" fill="white"/>
<path d="M489.351 105.166C493.687 105.166 497.2 106.586 499.892 109.352C502.583 112.118 503.854 115.781 503.854 120.267V138.508C503.854 139.331 503.63 140.004 503.181 140.527C502.733 141.05 502.06 141.275 501.237 141.275H497.2C496.378 141.275 495.705 141.05 495.257 140.527C494.808 140.004 494.584 139.331 494.584 138.508V120.94C494.584 118.622 493.911 116.753 492.565 115.333C491.22 113.912 489.425 113.24 487.183 113.24C484.94 113.24 483.071 113.987 481.65 115.333C480.23 116.753 479.557 118.622 479.557 120.94V138.508C479.557 139.331 479.333 140.004 478.884 140.527C478.436 141.05 477.763 141.275 476.941 141.275H472.829C472.006 141.275 471.334 141.05 470.885 140.527C470.436 140.004 470.212 139.331 470.212 138.508V108.38C470.212 107.558 470.436 106.885 470.885 106.436C471.334 105.988 472.006 105.764 472.829 105.764H475.52C476.342 105.764 477.015 105.988 477.464 106.436C477.912 106.885 478.137 107.558 478.137 108.38V110.773C480.753 107.035 484.491 105.166 489.351 105.166Z" fill="white"/>
<path d="M542.28 136.864C538.617 140.377 534.057 142.172 528.525 142.172C522.992 142.172 518.357 140.377 514.769 136.864C511.106 133.35 509.311 128.939 509.311 123.631C509.311 118.323 511.106 113.912 514.769 110.399C518.432 106.885 522.992 105.091 528.525 105.091C534.057 105.091 538.617 106.885 542.28 110.399C545.944 113.912 547.738 118.323 547.738 123.631C547.738 128.939 545.944 133.35 542.28 136.864ZM528.525 134.023C531.44 134.023 533.758 133.051 535.627 131.107C537.496 129.163 538.393 126.696 538.393 123.706C538.393 120.716 537.496 118.249 535.627 116.23C533.758 114.286 531.366 113.24 528.525 113.24C525.684 113.24 523.217 114.212 521.348 116.23C519.479 118.174 518.507 120.716 518.507 123.706C518.507 126.696 519.479 129.163 521.348 131.107C523.217 133.051 525.609 134.023 528.525 134.023Z" fill="white"/>
<path d="M239.578 198.017C238.681 198.017 238.008 197.793 237.485 197.27C236.961 196.746 236.737 196.074 236.737 195.176V155.03C236.737 154.133 236.961 153.461 237.485 153.012C238.008 152.563 238.681 152.264 239.578 152.264H256.175C263.426 152.264 269.258 154.358 273.594 158.544C277.93 162.731 280.098 168.188 280.098 175.066C280.098 181.944 277.93 187.551 273.594 191.738C269.258 195.924 263.426 198.017 256.175 198.017H239.578ZM246.232 190.093H255.876C260.286 190.093 263.8 188.747 266.491 186.056C269.183 183.364 270.454 179.701 270.454 175.141C270.454 170.581 269.108 166.917 266.491 164.226C263.8 161.535 260.286 160.189 255.876 160.189H246.232V190.168V190.093Z" fill="white"/>
<path d="M299.61 161.908C301.405 161.908 303.124 162.058 304.694 162.432C306.264 162.805 307.684 163.329 309.03 164.151C310.376 164.899 311.497 165.871 312.469 166.992C313.441 168.113 314.188 169.534 314.712 171.179C315.235 172.823 315.534 174.692 315.534 176.711V195.326C315.534 196.223 315.31 196.896 314.861 197.345C314.413 197.793 313.74 198.092 312.918 198.092H310.675C309.852 198.092 309.18 197.868 308.731 197.345C308.282 196.821 308.058 196.148 308.058 195.326V194.13C304.769 197.345 300.881 198.989 296.47 198.989C292.06 198.989 288.994 197.943 286.527 195.849C283.985 193.756 282.715 191.065 282.715 187.626C282.715 184.187 284.06 181.122 286.826 178.954C289.593 176.786 293.256 175.664 297.741 175.664C302.227 175.664 303.797 176.262 306.862 177.533V175.664C306.862 173.646 306.189 172.001 304.769 170.805C303.348 169.609 301.479 169.011 299.012 169.011C296.545 169.011 292.732 169.908 290.041 171.777C288.621 172.674 287.424 172.3 286.527 170.805L285.929 169.683C284.957 168.039 285.182 166.693 286.677 165.796C290.49 163.179 294.9 161.908 299.685 161.908H299.61ZM298.414 192.485C300.732 192.485 302.75 191.887 304.47 190.616C306.189 189.345 307.012 187.925 307.012 186.205V183.589C304.245 182.243 301.554 181.57 298.937 181.57C296.321 181.57 294.9 182.094 293.555 183.14C292.209 184.187 291.536 185.532 291.536 187.252C291.536 188.971 292.134 190.093 293.405 191.065C294.676 192.037 296.321 192.485 298.414 192.485Z" fill="white"/>
<path d="M341.625 161.908C345.961 161.908 349.475 163.329 352.166 166.095C354.858 168.861 356.129 172.524 356.129 177.01V195.251C356.129 196.074 355.904 196.746 355.456 197.27C355.007 197.793 354.334 198.017 353.512 198.017H349.475C348.653 198.017 347.98 197.793 347.531 197.27C347.083 196.746 346.858 196.074 346.858 195.251V177.683C346.858 175.365 346.186 173.496 344.84 172.076C343.494 170.655 341.7 169.982 339.457 169.982C337.214 169.982 335.345 170.73 333.925 172.076C332.505 173.496 331.832 175.365 331.832 177.683V195.251C331.832 196.074 331.607 196.746 331.159 197.27C330.71 197.793 330.038 198.017 329.215 198.017H325.103C324.281 198.017 323.608 197.793 323.16 197.27C322.711 196.746 322.487 196.074 322.487 195.251V165.123C322.487 164.301 322.711 163.628 323.16 163.179C323.608 162.731 324.281 162.506 325.103 162.506H327.795C328.617 162.506 329.29 162.731 329.738 163.179C330.187 163.628 330.411 164.301 330.411 165.123V167.515C333.028 163.777 336.766 161.908 341.625 161.908Z" fill="white"/>
<path d="M386.107 193.606C386.705 194.728 386.257 195.7 384.911 196.597C382.818 198.092 380.201 198.84 377.061 198.84C373.921 198.84 370.557 197.793 368.165 195.625C365.847 193.457 364.651 190.317 364.651 186.205V169.459H361.212C360.39 169.459 359.717 169.235 359.194 168.786C358.67 168.338 358.446 167.665 358.446 166.842V165.123C358.446 164.301 358.67 163.628 359.194 163.179C359.717 162.731 360.39 162.506 361.212 162.506H364.651V153.61C364.651 152.115 365.548 151.218 367.268 150.844L371.081 150.021C371.978 149.797 372.725 150.021 373.174 150.47C373.622 150.993 373.921 151.741 373.921 152.713V162.432H381.696C382.519 162.432 383.192 162.656 383.715 163.104C384.238 163.553 384.463 164.226 384.463 165.048V166.768C384.463 167.59 384.238 168.263 383.715 168.711C383.192 169.16 382.519 169.384 381.696 169.384H373.921V185.233C373.921 188.822 375.491 190.691 378.557 190.691C381.622 190.691 380.5 190.317 381.771 189.644C382.295 189.27 382.743 189.121 383.117 189.196C383.491 189.27 383.864 189.345 384.089 189.644C384.313 189.868 384.537 190.242 384.762 190.616L386.033 193.606H386.107Z" fill="white"/>
<path d="M403.526 161.908C405.32 161.908 407.04 162.058 408.61 162.432C410.18 162.805 411.6 163.329 412.946 164.151C414.292 164.899 415.413 165.871 416.385 166.992C417.357 168.113 418.104 169.534 418.628 171.179C419.151 172.823 419.45 174.692 419.45 176.711V195.326C419.45 196.223 419.226 196.896 418.777 197.345C418.329 197.793 417.656 198.092 416.833 198.092H414.591C413.768 198.092 413.095 197.868 412.647 197.345C412.198 196.821 411.974 196.148 411.974 195.326V194.13C408.685 197.345 404.797 198.989 400.386 198.989C395.975 198.989 392.91 197.943 390.443 195.849C387.901 193.756 386.63 191.065 386.63 187.626C386.63 184.187 387.976 181.122 390.742 178.954C393.508 176.786 397.172 175.664 401.657 175.664C406.143 175.664 407.713 176.262 410.778 177.533V175.664C410.778 173.646 410.105 172.001 408.685 170.805C407.264 169.609 405.395 169.011 402.928 169.011C400.461 169.011 396.648 169.908 393.957 171.777C392.537 172.674 391.34 172.3 390.443 170.805L389.845 169.683C388.873 168.039 389.098 166.693 390.593 165.796C394.406 163.179 398.816 161.908 403.601 161.908H403.526ZM402.33 192.485C404.648 192.485 406.666 191.887 408.386 190.616C410.105 189.345 410.927 187.925 410.927 186.205V183.589C408.161 182.243 405.47 181.57 402.853 181.57C400.237 181.57 398.816 182.094 397.471 183.14C396.125 184.187 395.452 185.532 395.452 187.252C395.452 188.971 396.05 190.093 397.321 191.065C398.592 192.037 400.237 192.485 402.33 192.485Z" fill="white"/>
<path d="M438.589 198.914C435.897 198.914 433.206 198.391 430.664 197.419C428.122 196.447 426.104 195.176 424.608 193.532C423.263 192.261 423.188 190.915 424.459 189.569L425.655 188.224C426.851 186.878 428.197 186.803 429.543 188C432.309 190.392 435.224 191.588 438.439 191.588C441.654 191.588 441.13 191.289 442.102 190.616C442.999 190.018 443.448 189.196 443.448 188.149C443.448 187.102 443.373 187.177 443.149 186.803C442.925 186.43 442.7 186.056 442.401 185.757C442.102 185.458 441.728 185.159 441.13 184.86C440.532 184.561 440.084 184.262 439.71 184.112C439.336 183.962 438.813 183.738 437.99 183.439C437.691 183.29 437.467 183.215 437.318 183.14C436.271 182.766 435.449 182.467 434.776 182.243C434.103 182.019 433.355 181.72 432.458 181.271C431.486 180.823 430.739 180.449 430.215 180.075C429.617 179.701 429.019 179.253 428.346 178.655C427.674 178.056 427.15 177.533 426.776 176.935C426.403 176.337 426.104 175.664 425.879 174.842C425.655 174.019 425.506 173.122 425.506 172.225C425.506 169.01 426.702 166.469 429.169 164.6C431.561 162.656 434.851 161.759 438.888 161.759C442.925 161.759 443.373 162.133 445.541 162.88C447.709 163.628 449.429 164.674 450.849 165.945C451.522 166.543 451.896 167.141 451.971 167.74C451.971 168.338 451.671 169.085 450.999 169.982L450.027 171.253C448.905 172.524 447.634 172.674 446.214 171.627C443.971 169.758 441.504 168.861 438.962 168.861C436.421 168.861 436.57 169.16 435.748 169.683C434.925 170.207 434.551 170.954 434.551 171.851C434.551 172.748 434.552 172.375 434.626 172.524C434.626 172.748 434.851 172.973 435 173.197C435.15 173.421 435.299 173.571 435.449 173.72C435.598 173.87 435.822 174.019 436.196 174.244C436.495 174.393 436.794 174.618 437.019 174.692C437.243 174.767 437.617 174.991 438.065 175.141C438.514 175.29 438.888 175.44 439.187 175.589C439.486 175.739 439.859 175.888 440.458 176.113C441.056 176.337 441.504 176.486 441.803 176.636C443.149 177.159 444.345 177.683 445.242 178.131C446.139 178.58 447.111 179.178 448.158 179.851C449.13 180.524 449.952 181.271 450.55 181.944C451.148 182.692 451.597 183.589 452.045 184.635C452.494 185.682 452.643 186.878 452.643 188.074C452.643 191.364 451.372 194.055 448.831 195.924C446.289 197.868 442.925 198.84 438.813 198.84L438.589 198.914Z" fill="white"/>
<path d="M254.754 224.931H254.231C253.857 224.931 253.633 225.155 253.633 225.604V235.92L244.886 225.379C244.662 225.08 244.363 224.856 244.139 224.856H244.064C243.839 224.856 243.615 225.005 243.615 225.305V238.836C243.615 239.21 243.84 239.509 244.213 239.509H244.737C245.11 239.509 245.335 239.21 245.335 238.836V228.519L254.082 239.06C254.381 239.359 254.605 239.584 254.829 239.584H254.904C255.128 239.584 255.352 239.434 255.352 239.135V225.604C255.352 225.155 255.128 224.931 254.754 224.931Z" fill="white"/>
<path d="M268.062 225.305C267.987 225.08 267.763 224.856 267.539 224.856H267.389C267.09 224.856 266.94 225.08 266.866 225.305L260.511 238.911C260.287 239.285 260.511 239.509 260.885 239.509H261.707C262.081 239.509 262.231 239.285 262.38 238.911L263.576 236.294H271.277L272.473 238.911C272.697 239.285 272.772 239.509 273.146 239.509H274.043C274.416 239.509 274.641 239.285 274.416 238.911L268.137 225.305H268.062ZM264.249 234.724L267.464 227.697L270.604 234.724H264.249Z" fill="white"/>
<path d="M286.752 224.931H276.659C276.285 224.931 275.986 225.155 275.986 225.529V225.828C275.986 226.202 276.211 226.426 276.659 226.426H280.771V238.687C280.771 239.06 280.995 239.359 281.369 239.359H281.967C282.341 239.359 282.565 239.06 282.565 238.687V226.426H286.677C287.126 226.426 287.35 226.202 287.35 225.828V225.529C287.35 225.155 287.126 224.931 286.677 224.931H286.752Z" fill="white"/>
<path d="M296.695 225.305C296.62 225.08 296.396 224.856 296.171 224.856H296.022C295.723 224.856 295.573 225.08 295.499 225.305L289.144 238.911C288.92 239.285 289.144 239.509 289.518 239.509H290.34C290.714 239.509 290.864 239.285 291.013 238.911L292.209 236.294H299.909L301.106 238.911C301.33 239.285 301.405 239.509 301.778 239.509H302.676C303.049 239.509 303.274 239.285 303.049 238.911L296.77 225.305H296.695ZM292.807 234.724L296.022 227.697L299.162 234.724H292.807Z" fill="white"/>
<path d="M316.282 237.939H309.853V225.678C309.853 225.23 309.628 225.006 309.254 225.006H308.731C308.357 225.006 308.133 225.23 308.133 225.678V238.911C308.133 239.285 308.357 239.509 308.731 239.509H316.357C316.73 239.509 317.029 239.285 317.029 238.911V238.612C317.029 238.238 316.73 238.014 316.357 238.014L316.282 237.939Z" fill="white"/>
<path d="M336.617 223.735H336.093C335.645 223.735 335.42 223.959 335.271 224.333L326.898 240.032C326.674 240.406 326.823 240.63 327.197 240.63H327.795C328.169 240.63 328.393 240.406 328.617 240.032L336.99 224.333C337.215 223.959 336.99 223.735 336.617 223.735Z" fill="white"/>
<path d="M359.792 229.192C359.792 226.501 357.998 224.931 354.634 224.931H349.774C349.326 224.931 349.101 225.155 349.101 225.604V238.761C349.101 239.135 349.326 239.434 349.7 239.434H350.223C350.597 239.434 350.821 239.135 350.821 238.761V233.379H354.484L357.624 238.911C357.848 239.285 357.923 239.434 358.372 239.434H359.194C359.493 239.434 359.717 239.21 359.493 238.761L356.353 233.154C358.521 232.631 359.717 231.285 359.717 229.117L359.792 229.192ZM355.007 231.883H350.896V226.501H355.007C356.876 226.501 357.923 227.622 357.923 229.192C357.923 230.762 356.876 231.883 355.007 231.883Z" fill="white"/>
<path d="M376.538 224.931H376.015C375.641 224.931 375.417 225.155 375.417 225.604V235.92L366.67 225.379C366.446 225.08 366.147 224.856 365.922 224.856H365.848C365.623 224.856 365.399 225.005 365.399 225.305V238.836C365.399 239.21 365.623 239.509 365.997 239.509H366.521C366.894 239.509 367.119 239.21 367.119 238.836V228.519L375.866 239.06C376.165 239.359 376.389 239.584 376.613 239.584H376.688C376.912 239.584 377.136 239.434 377.136 239.135V225.604C377.136 225.155 376.912 224.931 376.538 224.931Z" fill="white"/>
</svg>
